<svg width="89" height="16" viewBox="0 0 89 16" fill="none" xmlns="http://www.w3.org/2000/svg">
<path d="M0.264205 15V0.454545H3.33949V6.45597H9.58239V0.454545H12.6506V15H9.58239V8.99148H3.33949V15H0.264205ZM17.6932 15H14.3977L19.419 0.454545H23.3821L28.3963 15H25.1009L21.4574 3.77841H21.3438L17.6932 15ZM17.4872 9.28267H25.2713V11.6832H17.4872V9.28267ZM30.147 0.454545H33.9396L37.9453 10.2273H38.1158L42.1214 0.454545H45.9141V15H42.9311V5.53267H42.8104L39.0462 14.929H37.0149L33.2507 5.49716H33.13V15H30.147V0.454545ZM57.4322 0.454545H60.5075V9.90057C60.5075 10.9612 60.2541 11.8892 59.7475 12.6847C59.2456 13.4801 58.5425 14.1004 57.6381 14.5455C56.7338 14.9858 55.6803 15.206 54.4776 15.206C53.2702 15.206 52.2144 14.9858 51.31 14.5455C50.4057 14.1004 49.7025 13.4801 49.2006 12.6847C48.6987 11.8892 48.4478 10.9612 48.4478 9.90057V0.454545H51.5231V9.63778C51.5231 10.1918 51.6438 10.6842 51.8853 11.1151C52.1315 11.5459 52.4772 11.8845 52.9222 12.1307C53.3673 12.3769 53.8858 12.5 54.4776 12.5C55.0742 12.5 55.5927 12.3769 56.033 12.1307C56.4781 11.8845 56.8214 11.5459 57.0629 11.1151C57.3091 10.6842 57.4322 10.1918 57.4322 9.63778V0.454545ZM75.2038 0.454545V15H72.5476L66.2195 5.84517H66.1129V15H63.0376V0.454545H65.7365L72.0149 9.60227H72.1428V0.454545H75.2038Z" fill="#DEDEDE"/>
<path d="M85.8707 15.2955C85.1207 15.2955 84.4768 15.0303 83.9389 14.5C83.4086 13.9621 83.1435 13.3182 83.1435 12.5682C83.1435 11.8258 83.4086 11.1894 83.9389 10.6591C84.4768 10.1288 85.1207 9.86364 85.8707 9.86364C86.598 9.86364 87.2344 10.1288 87.7798 10.6591C88.3253 11.1894 88.598 11.8258 88.598 12.5682C88.598 13.0682 88.4692 13.5265 88.2116 13.9432C87.9616 14.3523 87.6321 14.6818 87.223 14.9318C86.8139 15.1742 86.3632 15.2955 85.8707 15.2955Z" fill="#D46868"/>
</svg>
