<svg width="48" height="26" viewBox="0 0 48 26" fill="none" xmlns="http://www.w3.org/2000/svg">
<path d="M0.00125005 25.3086L10.1893 0.000593424H14.1853L24.3373 25.3086H19.1172L11.2693 4.53659H13.0693L5.11325 25.3086H0.00125005ZM5.40125 20.5926V16.4886H19.0093V20.5926H5.40125ZM30.9264 14.7246V10.9086H36.7944C37.9944 10.9086 38.9184 10.6086 39.5664 10.0086C40.2384 9.38459 40.5744 8.53259 40.5744 7.45259C40.5744 6.46859 40.2384 5.65259 39.5664 5.00459C38.9184 4.33259 37.9944 3.99659 36.7944 3.99659H30.9264V0.000593424H37.2264C38.8584 0.000593424 40.2864 0.324593 41.5104 0.972592C42.7584 1.59659 43.7184 2.46059 44.3904 3.56459C45.0864 4.66859 45.4344 5.94059 45.4344 7.38059C45.4344 8.86859 45.0864 10.1646 44.3904 11.2686C43.7184 12.3486 42.7584 13.2006 41.5104 13.8246C40.2624 14.4246 38.8104 14.7246 37.1544 14.7246H30.9264ZM27.3264 25.3086V0.000593424H32.2224V25.3086H27.3264ZM41.1504 25.3086L32.7984 14.3646L37.2984 12.9606L47.0904 25.3086H41.1504Z" fill="#7C3AED"/>
</svg>
