<svg width="19" height="18" viewBox="0 0 19 18" fill="none" xmlns="http://www.w3.org/2000/svg">
<path d="M2.0289 0.899846C1.63838 0.509322 1.00521 0.509321 0.614688 0.899846C0.224164 1.29037 0.224164 1.92354 0.614688 2.31406L2.0289 0.899846ZM9.79304 8.66399L2.0289 0.899846L0.614688 2.31406L8.37883 10.0782L9.79304 8.66399Z" fill="#6F2C8F"/>
<path d="M0.293023 15.41C-0.0975006 15.8005 -0.0975009 16.4336 0.293023 16.8242C0.683548 17.2147 1.31671 17.2147 1.70724 16.8242L0.293023 15.41ZM8.41008 7.29289L0.293023 15.41L1.70724 16.8242L9.82429 8.70711L8.41008 7.29289Z" fill="#6F2C8F"/>
<path d="M11.0289 0.899846C10.6384 0.509322 10.0052 0.509321 9.61469 0.899846C9.22416 1.29037 9.22416 1.92354 9.61469 2.31406L11.0289 0.899846ZM18.793 8.66399L11.0289 0.899846L9.61469 2.31406L17.3788 10.0782L18.793 8.66399Z" fill="#6F2C8F"/>
<path d="M9.29302 15.41C8.9025 15.8005 8.9025 16.4336 9.29302 16.8242C9.68355 17.2147 10.3167 17.2147 10.7072 16.8242L9.29302 15.41ZM17.4101 7.29289L9.29302 15.41L10.7072 16.8242L18.8243 8.70711L17.4101 7.29289Z" fill="#6F2C8F"/>
</svg>
