<svg width="85" height="85" viewBox="0 0 85 85" fill="none" xmlns="http://www.w3.org/2000/svg">
<rect x="1.5" y="1.5" width="82" height="82" rx="6.5" stroke="#6F2C8F" stroke-width="3"/>
<path d="M50.686 68.9997C50.131 69.0016 49.5826 68.8792 49.0812 68.6414C48.5798 68.4036 48.138 68.0565 47.7883 67.6256L29.8451 45.342C29.2987 44.6774 29 43.8439 29 42.9836C29 42.1234 29.2987 41.2898 29.8451 40.6253L48.4199 18.3417C49.0505 17.5832 49.9566 17.1063 50.9389 17.0157C51.9212 16.9252 52.8993 17.2285 53.658 17.8589C54.4166 18.4893 54.8937 19.3951 54.9843 20.3772C55.0749 21.3592 54.7715 22.3371 54.1409 23.0955L37.5351 43.0022L53.5837 62.9089C54.0379 63.454 54.3265 64.1179 54.4152 64.8218C54.5039 65.5258 54.3891 66.2405 54.0842 66.8812C53.7794 67.522 53.2974 68.062 52.6951 68.4375C52.0929 68.8129 51.3957 69.008 50.686 68.9997Z" fill="#6F2C8F"/>
</svg>
