<svg width="88" height="98" viewBox="0 0 88 98" fill="none" xmlns="http://www.w3.org/2000/svg">
<path d="M44 97.2632L7.64211 87.3053L0 0H88L80.3579 87.3053L44 97.2632ZM16.2105 80.1263L44 87.7684L71.7895 80.1263L77.8105 9.26316H10.1895L16.2105 80.1263Z" fill="#6F2C8F"/>
<path d="M20.8398 20.8418H67.1556L62.9872 70.1681L43.7662 76.4207L24.3135 71.5576L22.2293 54.8839H32.6504V63.2207L43.7662 65.305L53.9556 63.2207V50.7155H22.2293L21.5346 40.2944C22.4864 39.4265 23.7204 38.9328 25.0083 38.905C40.9872 38.905 53.9556 40.2944 53.9556 40.2944V31.9576H22.2293L20.8398 20.8418Z" fill="#6F2C8F"/>
</svg>
