<svg width="81" height="90" viewBox="0 0 81 90" fill="none" xmlns="http://www.w3.org/2000/svg">
<path d="M40.4524 89.4211L7.02594 80.2661L0 0H80.9048L73.8788 80.2661L40.4524 89.4211ZM14.9035 73.6659L40.4524 80.6919L66.0013 73.6659L71.5368 8.51629H9.36792L14.9035 73.6659Z" fill="#1B85C3"/>
<path d="M19.1602 19.1621H61.7416L57.9093 64.5114L40.238 70.2599L22.3538 65.7888L20.4376 50.4595H30.0184V58.1241L40.238 60.0403L49.6059 58.1241V46.6271H20.4376L19.7989 37.0463C20.6739 36.2483 21.8085 35.7945 22.9925 35.7689C37.6831 35.7689 49.6059 37.0463 49.6059 37.0463V29.3817H20.4376L19.1602 19.1621Z" fill="#1B85C3"/>
</svg>
