<svg width="42" height="42" viewBox="0 0 42 42" fill="none" xmlns="http://www.w3.org/2000/svg">
<path d="M39.0698 21C39.0698 25.7924 37.166 30.3885 33.7773 33.7773C30.3885 37.166 25.7924 39.0698 21 39.0698V42C32.5979 42 42 32.5979 42 21H39.0698ZM21 39.0698C16.2076 39.0698 11.6115 37.166 8.22274 33.7773C4.83401 30.3885 2.93023 25.7924 2.93023 21H0C0 32.5979 9.40214 42 21 42V39.0698ZM2.93023 21C2.93023 16.2076 4.83401 11.6115 8.22274 8.22274C11.6115 4.83401 16.2076 2.93023 21 2.93023V0C9.40214 0 0 9.40214 0 21H2.93023ZM27.8372 25.3953C24.8581 25.3953 22.0011 24.2119 19.8946 22.1054C17.7881 19.9989 16.6047 17.1418 16.6047 14.1628H13.6744C13.6744 17.919 15.1666 21.5214 17.8226 24.1774C20.4786 26.8334 24.081 28.3256 27.8372 28.3256V25.3953ZM37.4581 19.9627C36.4586 21.6205 35.0475 22.9919 33.3618 23.9437C31.6761 24.8956 29.7731 25.3956 27.8372 25.3953V28.3256C30.2779 28.3263 32.6773 27.6963 34.8028 26.4966C36.9283 25.297 38.7076 23.5684 39.9684 21.4786L37.4581 19.9627ZM16.6047 14.1628C16.6044 12.2269 17.1044 10.3239 18.0563 8.63818C19.0081 6.9525 20.3795 5.54144 22.0373 4.54186L20.5214 2.03358C18.4319 3.29414 16.7035 5.07322 15.5038 7.19833C14.3042 9.32344 13.674 11.7225 13.6744 14.1628H16.6047ZM21 2.93023C20.9018 2.92834 20.805 2.907 20.7151 2.86743C20.6253 2.82786 20.5441 2.77086 20.4765 2.69972C20.3941 2.617 20.3383 2.51156 20.3163 2.39693C20.3085 2.33637 20.3124 2.16056 20.5214 2.03358L22.0373 4.54186C23.0199 3.948 23.3364 2.85991 23.2211 2.00428C23.1 1.11544 22.4007 0 21 0V2.93023ZM39.9684 21.4786C39.8394 21.6876 39.6636 21.6915 39.6031 21.6837C39.4884 21.6617 39.383 21.6059 39.3003 21.5235C39.2291 21.4559 39.1721 21.3747 39.1326 21.2849C39.093 21.195 39.0717 21.0982 39.0698 21H42C42 19.5993 40.8846 18.9 39.9957 18.7789C39.1401 18.6636 38.052 18.9801 37.4581 19.9627L39.9684 21.4786Z" fill="#D46868"/>
</svg>
