<svg width="94" height="94" viewBox="0 0 94 94" fill="none" xmlns="http://www.w3.org/2000/svg">
<path d="M47.0008 5H33.0003C25.2681 5 19 11.2681 19 19.0003C19 26.7325 25.2681 33.0007 33.0003 33.0007H47.0008V5Z" stroke="#6F2C8F" stroke-width="7"/>
<path d="M47.0008 32.9961H33.0003C25.2681 32.9961 19 39.2643 19 46.9963C19 54.7287 25.2681 60.9969 33.0003 60.9969H47.0008V32.9961Z" stroke="#6F2C8F" stroke-width="7"/>
<path d="M75.0008 46.9963C75.0008 54.7287 68.7326 60.9969 61.0002 60.9969C53.2682 60.9969 47 54.7287 47 46.9963C47 39.2643 53.2682 32.9961 61.0002 32.9961C68.7326 32.9961 75.0008 39.2643 75.0008 46.9963Z" stroke="#6F2C8F" stroke-width="7"/>
<path d="M33.0003 61.0039H47.0008V75.0041C47.0008 82.7365 40.7326 89.0047 33.0003 89.0047C25.2681 89.0047 19 82.7365 19 75.0041C19 67.2721 25.2681 61.0039 33.0003 61.0039Z" stroke="#6F2C8F" stroke-width="7"/>
<path d="M47 5H61.0002C68.7326 5 75.0008 11.2681 75.0008 19.0003C75.0008 26.7325 68.7326 33.0007 61.0002 33.0007H47V5Z" stroke="#6F2C8F" stroke-width="7"/>
</svg>
