<svg width="97" height="97" viewBox="0 0 97 97" fill="none" xmlns="http://www.w3.org/2000/svg">
<path d="M4.56261 44.2035C3.55503 45.3603 3 46.8426 3 48.3766C3 49.9107 3.55503 51.393 4.56261 52.5498L44.2135 92.2008C45.3703 93.2083 46.8526 93.7634 48.3867 93.7634C49.9208 93.7634 51.4031 93.2083 52.5599 92.2008L92.1887 52.5498C93.2051 51.3973 93.7659 49.9134 93.7659 48.3766C93.7659 46.8399 93.2051 45.356 92.1887 44.2035L52.5599 4.55254C51.4199 3.51121 49.9189 2.95528 48.3756 3.00282C46.8361 2.96238 45.342 3.52665 44.2135 4.57468L4.56261 44.2035Z" stroke="#6F2C8F" stroke-width="5" stroke-linecap="round" stroke-linejoin="round"/>
<path d="M53.5352 34.75L61.9922 43.2071" stroke="#6F2C8F" stroke-width="5" stroke-linecap="round" stroke-linejoin="round"/>
<path d="M33.7656 14.9805L43.219 24.4338" stroke="#6F2C8F" stroke-width="5" stroke-linecap="round" stroke-linejoin="round"/>
<path d="M48.3762 74.2895C52.4111 74.2895 55.682 71.0185 55.682 66.9836C55.682 62.9487 52.4111 59.6777 48.3762 59.6777C44.3413 59.6777 41.0703 62.9487 41.0703 66.9836C41.0703 71.0185 44.3413 74.2895 48.3762 74.2895Z" stroke="#6F2C8F" stroke-width="5" stroke-linecap="round" stroke-linejoin="round"/>
<path d="M48.3762 36.8969C52.4111 36.8969 55.682 33.6259 55.682 29.591C55.682 25.5561 52.4111 22.2852 48.3762 22.2852C44.3413 22.2852 41.0703 25.5561 41.0703 29.591C41.0703 33.6259 44.3413 36.8969 48.3762 36.8969Z" stroke="#6F2C8F" stroke-width="5" stroke-linecap="round" stroke-linejoin="round"/>
<path d="M67.1496 55.6723C71.1845 55.6723 74.4555 52.4013 74.4555 48.3664C74.4555 44.3315 71.1845 41.0605 67.1496 41.0605C63.1147 41.0605 59.8438 44.3315 59.8438 48.3664C59.8438 52.4013 63.1147 55.6723 67.1496 55.6723Z" stroke="#6F2C8F" stroke-width="5" stroke-linecap="round" stroke-linejoin="round"/>
<path d="M48.375 59.6794V36.8984" stroke="#6F2C8F" stroke-width="5" stroke-linecap="round" stroke-linejoin="round"/>
</svg>
