<svg width="19" height="19" viewBox="0 0 19 19" fill="none" xmlns="http://www.w3.org/2000/svg">
<path d="M2.2881 1.72208C2.33985 0.854572 2.55856 0.477334 3.18576 0.174399C3.86061 -0.151653 4.925 8.17278e-05 6.17745 0.600997C6.71691 0.859946 6.77184 0.865218 7.71725 0.750372C8.9739 0.597662 10.5917 0.598201 11.7515 0.75177C12.6286 0.867904 12.6862 0.862102 13.227 0.602614C15.0048 -0.250372 16.4084 -0.194561 16.9166 0.749294C17.1703 1.22042 17.2174 2.44289 17.0207 3.45116C16.9116 4.01014 16.9232 4.07993 17.1859 4.44674C19.0345 7.02775 17.7025 11.2114 14.535 12.7727C14.2926 12.8922 14.0883 12.9661 13.9218 13.0264C13.4107 13.2113 13.2555 13.2675 13.4434 14.1187C13.5339 14.5282 13.6428 15.5462 13.6857 16.3811C13.7631 17.8903 13.7619 17.9008 13.4826 18.2087C13.1023 18.6275 12.5543 18.6346 12.1829 18.2254C11.9407 17.9587 11.917 17.8327 11.917 16.8033C11.917 15.2821 11.7411 14.271 11.3252 13.4046C10.8308 12.3735 11.1973 11.9891 12.3281 11.7586C13.8999 11.4383 15.1275 10.5192 15.8117 9.15063C16.4622 7.84966 16.5603 6.05181 15.3842 4.95841C15.0497 4.58181 15.0264 4.2407 15.2652 3.21211C15.3545 2.82767 15.4293 2.3317 15.4315 2.10985C15.4349 1.75949 15.4012 1.70659 15.1741 1.70659C15.0304 1.70659 14.4813 1.90467 13.954 2.14674L13.1124 2.53321C13.0359 2.56833 12.9503 2.58184 12.8659 2.57266C10.726 2.33994 8.69267 2.33634 6.5423 2.57357C6.45754 2.58292 6.37157 2.56941 6.29479 2.53411L5.45367 2.14739C4.92636 1.90489 4.37726 1.70659 4.23357 1.70659C3.90136 1.70659 3.89636 1.93898 4.19918 3.31964C4.38415 4.16286 4.50863 4.35075 3.97389 5.02497C3.17236 6.0356 2.97215 7.29056 3.40197 8.60912C3.9437 10.2707 5.27026 11.3932 7.13526 11.7677C8.25953 11.9935 8.55339 12.2881 8.12407 13.5096C7.78613 14.4708 7.57246 14.7186 7.08134 14.7186C6.42056 14.7186 6.00663 14.1762 6.23443 13.6087C6.33476 13.3586 6.30491 13.3319 5.68589 13.118C3.79626 12.4652 2.35097 11.0021 1.69019 9.0729C1.17945 7.58188 1.40418 5.64116 2.22352 4.46814C2.5025 4.06875 2.50682 4.03488 2.37663 3.27028C2.30297 2.83745 2.26313 2.14083 2.2881 1.72208Z" fill="#6F2C8F"/>
<path d="M1.6285 12.629C1.3562 12.242 0.804345 12.1374 0.395894 12.3955C-0.0125482 12.6534 -0.122925 13.1763 0.149373 13.5633C0.350403 13.849 0.590897 14.0837 0.795127 14.2772C0.832779 14.3129 0.869364 14.3473 0.905086 14.3809C1.07616 14.542 1.22721 14.6841 1.37892 14.8529C1.71447 15.2261 2.04922 15.7287 2.23946 16.6299C2.32421 17.0314 2.62877 17.2477 2.79753 17.3422C2.98054 17.4446 3.1805 17.505 3.34505 17.5443C3.68167 17.6247 4.0903 17.6665 4.4781 17.6908C4.90382 17.7176 5.3651 17.7263 5.77759 17.7286C5.77789 18.1934 6.17572 18.5702 6.66643 18.5702C7.15733 18.5702 7.55527 18.1932 7.55527 17.728V16.8859C7.55527 16.4207 7.15733 16.0437 6.66643 16.0437C6.58264 16.0437 6.49198 16.044 6.39596 16.0443C5.87433 16.0458 5.19441 16.0478 4.5956 16.0102C4.30684 15.9921 4.06946 15.9664 3.89539 15.935C3.62733 14.938 3.19428 14.2746 2.73218 13.7606C2.5279 13.5335 2.31638 13.3347 2.14432 13.173C2.11211 13.1428 2.08129 13.1138 2.05214 13.0862C1.85362 12.8981 1.72376 12.7644 1.6285 12.629Z" fill="#6F2C8F"/>
</svg>
