<svg width="89" height="89" viewBox="0 0 89 89" fill="none" xmlns="http://www.w3.org/2000/svg">
<path d="M0 0V89H89V0H0ZM8.09091 8.09091H80.9091V80.9091H8.09091V8.09091ZM61.6695 40.4545C55.9047 40.4545 52.18 44.1446 52.18 49.0274C52.18 54.331 55.2899 56.8661 59.9786 58.8645L61.5984 59.5598C64.5596 60.8665 66.3233 61.6291 66.3233 63.8581C66.3233 65.7393 64.5967 67.0898 61.9065 67.0898C58.7187 67.0898 56.9058 65.4007 55.5223 63.1312L50.2205 66.1653C52.1017 69.9316 56.0208 72.8182 62.0566 72.8182C68.2057 72.8182 72.8182 69.6287 72.8182 63.787C72.8182 58.3297 69.7045 55.9051 64.1663 53.5628L62.5544 52.8675C59.7509 51.6376 58.5564 50.8305 58.5564 48.9089C58.5564 47.3312 59.7479 46.104 61.6695 46.104C63.5547 46.104 64.7406 46.9105 65.8572 48.9089L70.9377 45.6457C68.7855 41.8794 65.8201 40.4545 61.6695 40.4545ZM38.0051 40.8417V62.9416C38.0051 66.1699 36.6207 67.0107 34.5049 67.0107C32.2758 67.0107 31.3164 65.4768 30.3172 63.6685L25.0154 66.8606C26.5527 70.1293 29.5832 72.8182 34.7735 72.8182C40.5383 72.8182 44.5 69.7403 44.5 63.0127V40.8417H38.0051Z" fill="#6F2C8F"/>
</svg>
