<svg width="84" height="84" viewBox="0 0 84 84" fill="none" xmlns="http://www.w3.org/2000/svg">
<path d="M5 0C2.23858 0 0 2.23858 0 5V79C0 81.7614 2.23858 84 5 84H79C81.7614 84 84 81.7614 84 79V5C84 2.23858 81.7614 0 79 0H5ZM7.63636 12.6364C7.63636 9.87494 9.87494 7.63636 12.6364 7.63636H71.3636C74.1251 7.63636 76.3636 9.87494 76.3636 12.6364V71.3636C76.3636 74.1251 74.1251 76.3636 71.3636 76.3636H12.6364C9.87494 76.3636 7.63636 74.1251 7.63636 71.3636V12.6364ZM58.2049 38.1818C52.764 38.1818 49.2486 41.6645 49.2486 46.2731C49.2486 51.2787 52.1837 53.6713 56.609 55.5575L58.1378 56.2138C60.9327 57.4471 62.5973 58.1668 62.5973 60.2706C62.5973 62.0461 60.9677 63.3207 58.4286 63.3207C56.635 63.3207 55.3026 62.7541 54.2422 61.8428C53.0076 60.7816 51.2779 60.2284 49.8649 61.037V61.037C48.4811 61.829 47.9254 63.6029 48.9779 64.8005C51.0311 67.1367 54.2176 68.7273 58.5703 68.7273C64.3739 68.7273 68.7273 65.7169 68.7273 60.2035C68.7273 55.0528 65.7885 52.7643 60.5614 50.5536L59.0401 49.8974C56.3941 48.7366 55.2667 47.9749 55.2667 46.1612C55.2667 44.6721 56.3913 43.5138 58.2049 43.5138C58.9633 43.5138 59.6018 43.6521 60.1664 43.9569C61.6026 44.7321 63.3174 45.4161 64.6905 44.5341V44.5341C65.9582 43.7199 66.4077 42.0081 65.3727 40.9132C63.5304 38.9643 61.1931 38.1818 58.2049 38.1818ZM38.935 38.5472C37.2423 38.5472 35.87 39.9195 35.87 41.6122V59.4055C35.87 62.4524 34.5633 63.2461 32.5664 63.2461C31.6888 63.2461 31.0197 62.9942 30.4695 62.5766C29.1102 61.5452 27.3994 60.8229 25.9376 61.703V61.703C24.6154 62.4991 24.0678 64.211 25.0614 65.392C26.7092 67.3503 29.2116 68.7273 32.82 68.7273C38.2609 68.7273 42 65.8223 42 59.4727V41.6122C42 39.9195 40.6278 38.5472 38.935 38.5472V38.5472Z" fill="white"/>
</svg>
