<svg width="50" height="50" viewBox="0 0 50 50" fill="none" xmlns="http://www.w3.org/2000/svg">
<path d="M1 25C1 38.2547 11.7452 49 25 49C38.2547 49 49 38.2547 49 25C49 11.7452 38.2547 1 25 1C11.7452 1 1 11.7452 1 25Z" stroke="#AD66D4" stroke-width="2" stroke-linecap="round" stroke-linejoin="round"/>
<path d="M27.4023 1.11914C27.4023 1.11914 34.6023 10.6006 34.6023 25.0005C34.6023 39.4005 27.4023 48.8822 27.4023 48.8822" stroke="#AD66D4" stroke-width="2" stroke-linecap="round" stroke-linejoin="round"/>
<path d="M22.5984 48.8822C22.5984 48.8822 15.3984 39.4005 15.3984 25.0005C15.3984 10.6006 22.5984 1.11914 22.5984 1.11914" stroke="#AD66D4" stroke-width="2" stroke-linecap="round" stroke-linejoin="round"/>
<path d="M2.51172 33.3984H47.4895" stroke="#AD66D4" stroke-width="2" stroke-linecap="round" stroke-linejoin="round"/>
<path d="M2.51172 16.5996H47.4895" stroke="#AD66D4" stroke-width="2" stroke-linecap="round" stroke-linejoin="round"/>
</svg>
