<svg width="42" height="42" viewBox="0 0 42 42" fill="none" xmlns="http://www.w3.org/2000/svg">
<path d="M19.6 5.6V1.4C19.6 1.0287 19.7475 0.672601 20.01 0.41005C20.2726 0.1475 20.6287 0 21 0C21.3713 0 21.7274 0.1475 21.9899 0.41005C22.2525 0.672601 22.4 1.0287 22.4 1.4V5.6C22.4 5.9713 22.2525 6.3274 21.9899 6.58995C21.7274 6.8525 21.3713 7 21 7C20.6287 7 20.2726 6.8525 20.01 6.58995C19.7475 6.3274 19.6 5.9713 19.6 5.6ZM32.2 21C32.2 23.2151 31.5431 25.3806 30.3125 27.2224C29.0818 29.0642 27.3326 30.4997 25.2861 31.3475C23.2395 32.1952 20.9876 32.4169 18.815 31.9848C16.6424 31.5526 14.6468 30.4859 13.0804 28.9196C11.5141 27.3532 10.4474 25.3576 10.0152 23.185C9.58305 21.0124 9.80485 18.7605 10.6525 16.7139C11.5003 14.6674 12.9358 12.9182 14.7776 11.6875C16.6194 10.4569 18.7848 9.8 21 9.8C23.9694 9.80324 26.8163 10.9843 28.916 13.084C31.0157 15.1837 32.1968 18.0306 32.2 21ZM29.4 21C29.4 19.3386 28.9073 17.7146 27.9843 16.3332C27.0613 14.9518 25.7494 13.8752 24.2145 13.2394C22.6796 12.6036 20.9907 12.4373 19.3612 12.7614C17.7318 13.0855 16.2351 13.8855 15.0603 15.0603C13.8855 16.2351 13.0855 17.7318 12.7614 19.3612C12.4373 20.9907 12.6036 22.6796 13.2394 24.2145C13.8752 25.7494 14.9518 27.0613 16.3332 27.9843C17.7146 28.9073 19.3386 29.4 21 29.4C23.2271 29.3977 25.3623 28.5119 26.9371 26.9371C28.5119 25.3623 29.3977 23.2271 29.4 21ZM8.8095 10.7905C9.0722 11.0532 9.42849 11.2008 9.8 11.2008C10.1715 11.2008 10.5278 11.0532 10.7905 10.7905C11.0532 10.5278 11.2008 10.1715 11.2008 9.8C11.2008 9.42849 11.0532 9.0722 10.7905 8.8095L7.9905 6.0095C7.7278 5.7468 7.37151 5.59922 7 5.59922C6.62849 5.59922 6.2722 5.7468 6.0095 6.0095C5.7468 6.2722 5.59922 6.62849 5.59922 7C5.59922 7.37151 5.7468 7.7278 6.0095 7.9905L8.8095 10.7905ZM8.8095 31.2095L6.0095 34.0095C5.7468 34.2722 5.59922 34.6285 5.59922 35C5.59922 35.3715 5.7468 35.7278 6.0095 35.9905C6.2722 36.2532 6.62849 36.4008 7 36.4008C7.37151 36.4008 7.7278 36.2532 7.9905 35.9905L10.7905 33.1905C10.9206 33.0604 11.0238 32.906 11.0942 32.7361C11.1645 32.5661 11.2008 32.384 11.2008 32.2C11.2008 32.016 11.1645 31.8339 11.0942 31.6639C11.0238 31.494 10.9206 31.3396 10.7905 31.2095C10.6604 31.0794 10.506 30.9762 10.3361 30.9058C10.1661 30.8355 9.98395 30.7992 9.8 30.7992C9.61605 30.7992 9.4339 30.8355 9.26394 30.9058C9.09399 30.9762 8.93957 31.0794 8.8095 31.2095ZM32.2 11.2C32.3839 11.2001 32.566 11.1641 32.736 11.0938C32.9059 11.0235 33.0604 10.9205 33.1905 10.7905L35.9905 7.9905C36.2532 7.7278 36.4008 7.37151 36.4008 7C36.4008 6.62849 36.2532 6.2722 35.9905 6.0095C35.7278 5.7468 35.3715 5.59922 35 5.59922C34.6285 5.59922 34.2722 5.7468 34.0095 6.0095L31.2095 8.8095C31.0135 9.0053 30.88 9.25485 30.8259 9.52657C30.7717 9.79829 30.7995 10.08 30.9055 10.3359C31.0116 10.5919 31.1912 10.8106 31.4216 10.9644C31.6521 11.1182 31.9229 11.2002 32.2 11.2ZM33.1905 31.2095C32.9278 30.9468 32.5715 30.7992 32.2 30.7992C31.8285 30.7992 31.4722 30.9468 31.2095 31.2095C30.9468 31.4722 30.7992 31.8285 30.7992 32.2C30.7992 32.5715 30.9468 32.9278 31.2095 33.1905L34.0095 35.9905C34.1396 36.1206 34.294 36.2238 34.4639 36.2941C34.6339 36.3645 34.816 36.4008 35 36.4008C35.1839 36.4008 35.3661 36.3645 35.5361 36.2941C35.706 36.2238 35.8604 36.1206 35.9905 35.9905C36.1206 35.8604 36.2238 35.706 36.2941 35.5361C36.3645 35.3661 36.4008 35.1839 36.4008 35C36.4008 34.816 36.3645 34.6339 36.2941 34.4639C36.2238 34.294 36.1206 34.1396 35.9905 34.0095L33.1905 31.2095ZM7 21C7 20.6287 6.8525 20.2726 6.58995 20.01C6.3274 19.7475 5.9713 19.6 5.6 19.6H1.4C1.0287 19.6 0.672601 19.7475 0.41005 20.01C0.1475 20.2726 0 20.6287 0 21C0 21.3713 0.1475 21.7274 0.41005 21.9899C0.672601 22.2525 1.0287 22.4 1.4 22.4H5.6C5.9713 22.4 6.3274 22.2525 6.58995 21.9899C6.8525 21.7274 7 21.3713 7 21ZM21 35C20.6287 35 20.2726 35.1475 20.01 35.41C19.7475 35.6726 19.6 36.0287 19.6 36.4V40.6C19.6 40.9713 19.7475 41.3274 20.01 41.5899C20.2726 41.8525 20.6287 42 21 42C21.3713 42 21.7274 41.8525 21.9899 41.5899C22.2525 41.3274 22.4 40.9713 22.4 40.6V36.4C22.4 36.0287 22.2525 35.6726 21.9899 35.41C21.7274 35.1475 21.3713 35 21 35ZM40.6 19.6H36.4C36.0287 19.6 35.6726 19.7475 35.41 20.01C35.1475 20.2726 35 20.6287 35 21C35 21.3713 35.1475 21.7274 35.41 21.9899C35.6726 22.2525 36.0287 22.4 36.4 22.4H40.6C40.9713 22.4 41.3274 22.2525 41.5899 21.9899C41.8525 21.7274 42 21.3713 42 21C42 20.6287 41.8525 20.2726 41.5899 20.01C41.3274 19.7475 40.9713 19.6 40.6 19.6Z" fill="#D46868"/>
</svg>
