<svg width="20" height="20" viewBox="0 0 20 20" fill="none" xmlns="http://www.w3.org/2000/svg">
<path d="M5.00036 6.36399C5.75347 6.36399 6.36399 5.75347 6.36399 5.00036C6.36399 4.24724 5.75347 3.63672 5.00036 3.63672C4.24724 3.63672 3.63672 4.24724 3.63672 5.00036C3.63672 5.75347 4.24724 6.36399 5.00036 6.36399Z" fill="#7C3AED"/>
<path d="M3.63672 8.18253C3.63672 7.68046 4.04374 7.27344 4.54581 7.27344H5.4549C5.95697 7.27344 6.36399 7.68045 6.36399 8.18253V15.4553C6.36399 15.9573 5.95697 16.3643 5.4549 16.3643H4.54581C4.04374 16.3643 3.63672 15.9573 3.63672 15.4553V8.18253Z" fill="#7C3AED"/>
<path d="M9.09268 16.3643H10.0018C10.5039 16.3643 10.9109 15.9573 10.9109 15.4553V11.3643C10.9109 10.0007 13.6381 9.09162 13.6381 10.9098V15.4556C13.6381 15.9577 14.0451 16.3643 14.5472 16.3643H15.4563C15.9584 16.3643 16.3654 15.9573 16.3654 15.4553V10.0007C16.3654 8.18253 15.0018 7.27344 13.1836 7.27344C11.3654 7.27344 10.9109 8.63707 10.9109 8.63707V8.18253C10.9109 7.68045 10.5039 7.27344 10.0018 7.27344H9.09268C8.59059 7.27344 8.18359 7.68046 8.18359 8.18253V15.4553C8.18359 15.9573 8.59059 16.3643 9.09268 16.3643Z" fill="#7C3AED"/>
<path fill-rule="evenodd" clip-rule="evenodd" d="M17.2727 0C18.779 0 20 1.22105 20 2.72727V17.2727C20 18.779 18.779 20 17.2727 20H2.72727C1.22105 20 0 18.779 0 17.2727V2.72727C0 1.22105 1.22105 0 2.72727 0H17.2727ZM17.2727 1.81818C17.7748 1.81818 18.1818 2.2252 18.1818 2.72727V17.2727C18.1818 17.7748 17.7748 18.1818 17.2727 18.1818H2.72727C2.2252 18.1818 1.81818 17.7748 1.81818 17.2727V2.72727C1.81818 2.2252 2.2252 1.81818 2.72727 1.81818H17.2727Z" fill="#7C3AED"/>
</svg>
