<svg width="99" height="15" viewBox="0 0 99 15" fill="none" xmlns="http://www.w3.org/2000/svg">
<path d="M2.561 14.0605C0.854334 14.0605 0.0010004 13.2072 0.0010004 11.5005V9.90055C0.0010004 8.23655 0.854334 7.40455 2.561 7.40455H4.097C5.71833 7.40455 6.529 8.23655 6.529 9.90055V11.5005C6.529 13.2072 5.71833 14.0605 4.097 14.0605H2.561ZM12.275 14.0605L17.935 0.000546694H20.155L25.795 14.0605H22.895L18.535 2.52055H19.535L15.115 14.0605H12.275ZM15.275 11.4405V9.16055H22.835V11.4405H15.275ZM95.0258 14.0605C93.3192 14.0605 92.4658 13.2072 92.4658 11.5005V9.90055C92.4658 8.23655 93.3192 7.40455 95.0258 7.40455H96.5618C98.1832 7.40455 98.9938 8.23655 98.9938 9.90055V11.5005C98.9938 13.2072 98.1832 14.0605 96.5618 14.0605H95.0258Z" fill="#7C3AED"/>
<path d="M27.4556 14.0605V0.000546694H30.1756V14.0605H27.4556ZM29.4556 14.0605V11.6405H36.6156V14.0605H29.4556ZM38.5689 14.0605V0.000546694H41.2889V14.0605H38.5689ZM40.5689 14.0605V11.6605H48.3489V14.0605H40.5689ZM40.5689 8.04055V5.72055H47.6489V8.04055H40.5689ZM40.5689 2.40055V0.000546694H48.2489V2.40055H40.5689ZM53.6309 14.0605V0.300546H56.3709V14.0605H53.6309ZM49.1509 2.42055V0.000546694H60.8509V2.42055H49.1509ZM62.7291 14.0605V0.000546694H65.4491V14.0605H62.7291ZM64.7291 14.0605V11.6605H72.5091V14.0605H64.7291ZM64.7291 8.04055V5.72055H71.8091V8.04055H64.7291ZM64.7291 2.40055V0.000546694H72.4091V2.40055H64.7291ZM83.2603 14.0605L77.1603 6.72055L83.1003 0.000546694H86.5003L79.8803 7.30055V6.04055L86.7203 14.0605H83.2603ZM74.7603 14.0605V0.000546694H77.4803V14.0605H74.7603Z" fill="#E5E7EB"/>
</svg>
