<svg width="101" height="15" viewBox="0 0 101 15" fill="none" xmlns="http://www.w3.org/2000/svg">
<path d="M2.936 14C1.22933 14 0.376 13.1467 0.376 11.44V9.84C0.376 8.176 1.22933 7.344 2.936 7.344H4.472C6.09333 7.344 6.904 8.176 6.904 9.84V11.44C6.904 13.1467 6.09333 14 4.472 14H2.936ZM96.3774 14C94.6707 14 93.8174 13.1467 93.8174 11.44V9.84C93.8174 8.176 94.6707 7.344 96.3774 7.344H97.9134C99.5347 7.344 100.345 8.176 100.345 9.84V11.44C100.345 13.1467 99.5347 14 97.9134 14H96.3774Z" fill="#D46868"/>
<path d="M15.17 14C14.95 14 14.7533 13.9167 14.58 13.75C14.4133 13.5767 14.33 13.38 14.33 13.16V1.28C14.33 1.06 14.4133 0.866666 14.58 0.7C14.7533 0.526666 14.95 0.439999 15.17 0.439999C15.39 0.439999 15.5833 0.526666 15.75 0.7C15.9233 0.866666 16.01 1.06 16.01 1.28V6.3H24.17V1.28C24.17 1.06 24.2533 0.866666 24.42 0.7C24.5867 0.526666 24.7833 0.439999 25.01 0.439999C25.23 0.439999 25.4233 0.526666 25.59 0.7C25.7633 0.866666 25.85 1.06 25.85 1.28V13.16C25.85 13.38 25.7633 13.5767 25.59 13.75C25.4233 13.9167 25.23 14 25.01 14C24.7833 14 24.5867 13.9167 24.42 13.75C24.2533 13.5767 24.17 13.38 24.17 13.16V7.98H16.01V13.16C16.01 13.38 15.9233 13.5767 15.75 13.75C15.5833 13.9167 15.39 14 15.17 14ZM29.3736 13.92C28.8403 13.7133 28.6803 13.3467 28.8936 12.82L33.6536 1.1C33.8536 0.659999 34.1669 0.439999 34.5936 0.439999H34.6336C35.0669 0.459999 35.3603 0.679999 35.5136 1.1L40.3536 12.82C40.5669 13.3467 40.4136 13.7133 39.8936 13.92C39.3669 14.1267 39.0003 13.9733 38.7936 13.46L37.7136 10.84H31.4836L30.4536 13.46C30.2469 13.98 29.8869 14.1333 29.3736 13.92ZM32.1436 9.16H37.0236L34.5336 3.1L32.1436 9.16ZM44.1739 14C43.6139 14 43.3339 13.72 43.3339 13.16V1.28C43.3339 0.719999 43.6139 0.439999 44.1739 0.439999C44.5406 0.439999 44.8472 0.619999 45.0939 0.98L49.8139 8.08L49.4539 8.14L54.2139 0.98C54.4406 0.619999 54.7806 0.439999 55.2339 0.439999C55.6872 0.439999 55.9139 0.719999 55.9139 1.28V13.16C55.9139 13.72 55.6339 14 55.0739 14C54.5139 14 54.2339 13.72 54.2339 13.16V2.96L54.7539 3.14L50.5539 9.32C50.3072 9.68 49.9672 9.86 49.5339 9.86C49.2339 9.86 48.9606 9.68 48.7139 9.32L44.5139 3.14L45.0139 3.28V13.16C45.0139 13.72 44.7339 14 44.1739 14ZM64.4522 14C62.9255 14 61.7955 13.6367 61.0622 12.91C60.3355 12.1767 59.9722 11.0467 59.9722 9.52V1.28C59.9722 1 60.0422 0.79 60.1822 0.65C60.3222 0.509999 60.5322 0.439999 60.8122 0.439999C61.0922 0.439999 61.3022 0.509999 61.4422 0.65C61.5822 0.79 61.6522 1 61.6522 1.28V9.52C61.6522 10.2333 61.7355 10.7933 61.9022 11.2C62.0755 11.6067 62.3655 11.8967 62.7722 12.07C63.1789 12.2367 63.7389 12.32 64.4522 12.32H66.8522C67.5655 12.32 68.1255 12.2367 68.5322 12.07C68.9389 11.8967 69.2255 11.6067 69.3922 11.2C69.5655 10.7933 69.6522 10.2333 69.6522 9.52V1.28C69.6522 1 69.7222 0.79 69.8622 0.65C70.0022 0.509999 70.2122 0.439999 70.4922 0.439999C70.7722 0.439999 70.9822 0.509999 71.1222 0.65C71.2622 0.79 71.3322 1 71.3322 1.28V9.52C71.3322 11.0467 70.9689 12.1767 70.2422 12.91C69.5155 13.6367 68.3855 14 66.8522 14H64.4522ZM76.2247 14C75.6647 14 75.3847 13.72 75.3847 13.16V1.28C75.3847 0.719999 75.6647 0.439999 76.2247 0.439999C76.5114 0.439999 76.7914 0.606666 77.0647 0.939999L85.1047 11.3H84.6847V1.28C84.6847 0.719999 84.9647 0.439999 85.5247 0.439999C86.0847 0.439999 86.3647 0.719999 86.3647 1.28V13.16C86.3647 13.72 86.0847 14 85.5247 14C85.2247 14 84.9447 13.8333 84.6847 13.5L76.6447 3.14H77.0647V13.16C77.0647 13.72 76.7847 14 76.2247 14Z" fill="black"/>
</svg>
