<svg width="97" height="15" viewBox="0 0 97 15" fill="none" xmlns="http://www.w3.org/2000/svg">
<path d="M2.936 14C1.22933 14 0.376 13.1467 0.376 11.44V9.84C0.376 8.176 1.22933 7.344 2.936 7.344H4.472C6.09333 7.344 6.904 8.176 6.904 9.84V11.44C6.904 13.1467 6.09333 14 4.472 14H2.936ZM92.4516 14C90.745 14 89.8916 13.1467 89.8916 11.44V9.84C89.8916 8.176 90.745 7.344 92.4516 7.344H93.9876C95.609 7.344 96.4196 8.176 96.4196 9.84V11.44C96.4196 13.1467 95.609 14 93.9876 14H92.4516Z" fill="#6F2C8F"/>
<path d="M13.69 13.92C13.1567 13.7133 12.9967 13.3467 13.21 12.82L17.97 1.1C18.17 0.659999 18.4833 0.439999 18.91 0.439999H18.95C19.3833 0.459999 19.6767 0.679999 19.83 1.1L24.67 12.82C24.8833 13.3467 24.73 13.7133 24.21 13.92C23.6833 14.1267 23.3167 13.9733 23.11 13.46L22.03 10.84H15.8L14.77 13.46C14.5633 13.98 14.2033 14.1333 13.69 13.92ZM16.46 9.16H21.34L18.85 3.1L16.46 9.16ZM28.4903 14C27.9303 14 27.6503 13.72 27.6503 13.16V1.28C27.6503 0.719999 27.9303 0.439999 28.4903 0.439999C29.0503 0.439999 29.3303 0.719999 29.3303 1.28V12.32H34.8703C35.4303 12.32 35.7103 12.6 35.7103 13.16C35.7103 13.72 35.4303 14 34.8703 14H28.4903ZM39.3106 14C38.7506 14 38.4706 13.72 38.4706 13.16V1.28C38.4706 0.719999 38.7506 0.439999 39.3106 0.439999H46.4906C47.0506 0.439999 47.3306 0.719999 47.3306 1.28C47.3306 1.84 47.0506 2.12 46.4906 2.12H40.1506V6.32H44.1306C44.6906 6.32 44.9706 6.6 44.9706 7.16C44.9706 7.72 44.6906 8 44.1306 8H40.1506V12.32H46.4906C47.0506 12.32 47.3306 12.6 47.3306 13.16C47.3306 13.72 47.0506 14 46.4906 14H39.3106ZM54.5814 14C54.3014 14 54.0914 13.93 53.9514 13.79C53.8114 13.65 53.7414 13.44 53.7414 13.16V2.14H49.8614C49.5814 2.14 49.3714 2.07 49.2314 1.93C49.0914 1.79 49.0214 1.58 49.0214 1.3C49.0214 1.02 49.0914 0.81 49.2314 0.669999C49.3714 0.529999 49.5814 0.459999 49.8614 0.459999H59.3014C59.5814 0.459999 59.7914 0.529999 59.9314 0.669999C60.0714 0.81 60.1414 1.02 60.1414 1.3C60.1414 1.58 60.0714 1.79 59.9314 1.93C59.7914 2.07 59.5814 2.14 59.3014 2.14H55.4214V13.16C55.4214 13.4267 55.3481 13.6333 55.2014 13.78C55.0614 13.9267 54.8547 14 54.5814 14ZM63.6466 14C63.0866 14 62.8066 13.72 62.8066 13.16V1.28C62.8066 0.719999 63.0866 0.439999 63.6466 0.439999H70.8266C71.3866 0.439999 71.6666 0.719999 71.6666 1.28C71.6666 1.84 71.3866 2.12 70.8266 2.12H64.4866V6.32H68.4666C69.0266 6.32 69.3066 6.6 69.3066 7.16C69.3066 7.72 69.0266 8 68.4666 8H64.4866V12.32H70.8266C71.3866 12.32 71.6666 12.6 71.6666 13.16C71.6666 13.72 71.3866 14 70.8266 14H63.6466ZM75.6973 14C75.1373 14 74.8573 13.72 74.8573 13.16V1.28C74.8573 0.719999 75.1373 0.439999 75.6973 0.439999C76.2573 0.439999 76.5373 0.719999 76.5373 1.28V6.03L81.6373 0.759999C82.024 0.346666 82.4173 0.339999 82.8173 0.739999C83.2307 1.12667 83.2373 1.52 82.8373 1.92L78.5873 6.31L83.5973 12.54C83.9373 12.9867 83.8973 13.38 83.4773 13.72C83.044 14.0733 82.6507 14.0333 82.2973 13.6L77.4073 7.54L76.5373 8.44V13.16C76.5373 13.72 76.2573 14 75.6973 14Z" fill="black"/>
</svg>
