<svg width="42" height="39" viewBox="0 0 42 39" fill="none" xmlns="http://www.w3.org/2000/svg">
<path d="M28.8154 26.6489L29.7964 25.6942L27.5185 23.4518L26.5377 24.4066L28.8154 26.6489ZM33.0907 25.2943L37.2053 27.4837L38.7482 24.7057L34.6336 22.5163L33.0907 25.2943ZM37.9975 31.8352L34.9379 34.8129L37.2157 37.0552L40.2752 34.0776L37.9975 31.8352ZM33.0737 35.7716C29.9511 36.0564 21.8721 35.8026 13.1251 27.2894L10.8473 29.5317C20.3925 38.8218 29.4775 39.2754 33.3735 38.92L33.0737 35.7716ZM13.1251 27.2894C4.78733 19.1746 3.40619 12.3494 3.23426 9.38839L0.00893513 9.56781C0.225295 13.2945 1.93548 20.8583 10.8473 29.5317L13.1251 27.2894ZM16.0871 14.2609L16.7048 13.6597L14.427 11.4174L13.8093 12.0186L16.0871 14.2609ZM17.1965 5.99643L14.4808 2.4456L11.8946 4.34062L14.6103 7.89148L17.1965 5.99643ZM5.34692 1.67274L1.96649 4.96278L4.24432 7.20509L7.62475 3.91505L5.34692 1.67274ZM14.9482 13.1397C13.8093 12.0186 13.8078 12.0201 13.8062 12.0216C13.8057 12.0221 13.8042 12.0236 13.8031 12.0247C13.801 12.0268 13.7988 12.0289 13.7967 12.031C13.7923 12.0354 13.7878 12.0399 13.7831 12.0447C13.7738 12.0541 13.7639 12.0644 13.7536 12.0754C13.7328 12.0975 13.71 12.1227 13.6855 12.1513C13.6367 12.2083 13.5814 12.2785 13.5232 12.3625C13.4067 12.5309 13.2796 12.7536 13.1718 13.0336C12.9519 13.605 12.834 14.3583 12.9818 15.291C13.2709 17.1151 14.5543 19.5245 17.8419 22.7241L20.1197 20.4818C17.0431 17.4875 16.3102 15.6653 16.1741 14.8062C16.1093 14.3974 16.1765 14.1962 16.195 14.1485C16.2062 14.1191 16.2116 14.1161 16.1978 14.1362C16.1909 14.146 16.1795 14.1614 16.1616 14.1822C16.1528 14.1926 16.1422 14.2044 16.13 14.2175C16.1237 14.224 16.1173 14.2309 16.1099 14.2382C16.1065 14.2418 16.1028 14.2455 16.0989 14.2493C16.097 14.2512 16.0951 14.2531 16.0931 14.255C16.0923 14.256 16.0908 14.2575 16.0901 14.2579C16.0886 14.2594 16.0871 14.2609 14.9482 13.1397ZM17.8419 22.7241C21.1306 25.9248 23.6037 27.1705 25.4703 27.4508C26.4242 27.594 27.1933 27.4797 27.7767 27.267C28.0627 27.1627 28.2906 27.0398 28.4629 26.9268C28.549 26.8703 28.6209 26.8165 28.6793 26.7691C28.7086 26.7455 28.7344 26.7234 28.7571 26.7031C28.7685 26.693 28.779 26.6835 28.7887 26.6744C28.7937 26.6698 28.7982 26.6654 28.8027 26.6612C28.8049 26.6591 28.807 26.6569 28.8092 26.6548C28.8102 26.6538 28.812 26.6523 28.8124 26.6519C28.8139 26.6504 28.8154 26.6489 27.6765 25.5277C26.5377 24.4066 26.5392 24.4051 26.5407 24.4036C26.5411 24.4032 26.5426 24.4017 26.5437 24.4007C26.5456 24.3988 26.5476 24.3969 26.5495 24.395C26.5536 24.3914 26.5573 24.3878 26.5609 24.3842C26.5685 24.3773 26.5756 24.371 26.5823 24.3648C26.5956 24.353 26.6077 24.3427 26.6184 24.3343C26.6395 24.317 26.6553 24.306 26.665 24.2995C26.685 24.2864 26.6809 24.2923 26.649 24.3039C26.5963 24.3231 26.385 24.3891 25.9603 24.3252C25.0701 24.1918 23.1954 23.475 20.1197 20.4818L17.8419 22.7241ZM14.4808 2.4456C12.2855 -0.424727 7.96868 -0.878911 5.34692 1.67274L7.62475 3.91505C8.76983 2.80057 10.8035 2.91401 11.8946 4.34062L14.4808 2.4456ZM3.23426 9.38839C3.1919 8.65877 3.53377 7.89662 4.24432 7.20509L1.96649 4.96278C0.809268 6.08906 -0.100494 7.68339 0.00893513 9.56781L3.23426 9.38839ZM34.9379 34.8129C34.3461 35.389 33.7116 35.7134 33.0737 35.7716L33.3735 38.92C34.9556 38.7756 36.2519 37.9933 37.2157 37.0552L34.9379 34.8129ZM16.7048 13.6597C18.8251 11.5961 18.9827 8.33194 17.1965 5.99643L14.6103 7.89148C15.4793 9.02768 15.3501 10.519 14.427 11.4174L16.7048 13.6597ZM37.2053 27.4837C38.9666 28.421 39.241 30.6248 37.9975 31.8352L40.2752 34.0776C43.1618 31.2681 42.2717 26.5804 38.7482 24.7057L37.2053 27.4837ZM29.7964 25.6942C30.6234 24.8893 31.9546 24.6899 33.0907 25.2943L34.6336 22.5163C32.2999 21.2744 29.4036 21.6174 27.5185 23.4518L29.7964 25.6942Z" fill="#6F2C8F"/>
</svg>
