<svg width="23" height="48" viewBox="0 0 23 48" fill="none" xmlns="http://www.w3.org/2000/svg">
<path d="M10 12.7928C10 13.4831 10.5596 14.0428 11.25 14.0428C11.9404 14.0428 12.5 13.4831 12.5 12.7928V7.79278C12.5 7.10242 11.9404 6.54278 11.25 6.54278C10.5596 6.54278 10 7.10242 10 7.79278V12.7928Z" fill="#A9A9A9"/>
<path fill-rule="evenodd" clip-rule="evenodd" d="M22.5 11.25C22.5 5.71417 18.4727 1.00105 13.0046 0.137667C11.8421 -0.0458888 10.6579 -0.0458889 9.49542 0.137667C4.02734 1.00105 0 5.71417 0 11.25V21.0022C0 26.5381 4.02734 31.2512 9.49542 32.1146C10.6579 32.2981 11.8421 32.2981 13.0046 32.1146C18.4727 31.2512 22.5 26.5381 22.5 21.0022L22.5 11.25ZM12.6147 2.60707C16.8676 3.27859 20 6.94435 20 11.25L20 21.0022C20 25.3079 16.8676 28.9736 12.6147 29.6452C11.7105 29.7879 10.7895 29.7879 9.88533 29.6452C5.63237 28.9736 2.5 25.3079 2.5 21.0022L2.5 11.25C2.5 6.94436 5.63237 3.27859 9.88533 2.60707C10.7895 2.46431 11.7105 2.46431 12.6147 2.60707Z" fill="#A9A9A9"/>
<path d="M12.3112 42.7831L16.1641 38.137C16.579 37.6366 17.2517 37.6366 17.6667 38.137C18.0816 38.6373 18.0816 39.4486 17.6667 39.9489L12 46.7823C11.5851 47.2826 10.9123 47.2826 10.4974 46.7823L4.83073 39.9489C4.4158 39.4486 4.4158 38.6373 4.83073 38.137C5.24566 37.6366 5.9184 37.6366 6.33333 38.137L10.1862 42.7831L10.1862 26.2305C10.1862 25.5229 10.6619 24.9492 11.2487 24.9492C11.8355 24.9492 12.3112 25.5229 12.3112 26.2305L12.3112 42.7831Z" fill="#A9A9A9"/>
</svg>
