<svg width="139" height="56" viewBox="0 0 139 56" fill="none" xmlns="http://www.w3.org/2000/svg">
<path d="M50.5215 12.2319C49.7609 11.094 49.2058 9.83156 48.8815 8.50187C48.8815 8.38187 48.6415 7.06188 48.6115 6.92188L6.51148 49.0019C6.71085 51.1755 6.34214 53.3636 5.44148 55.3519C5.39357 55.4338 5.37632 55.53 5.39281 55.6234C5.40929 55.7168 5.45844 55.8013 5.53148 55.8619C5.59077 55.8961 5.65802 55.9141 5.72648 55.9141C5.79494 55.9141 5.86219 55.8961 5.92148 55.8619C6.11148 55.7719 43.8015 18.0019 43.8015 18.0019C45.6448 21.1903 46.5322 24.8416 46.3579 28.5204C46.1836 32.1992 44.9549 35.7502 42.8183 38.7501C40.6817 41.7499 37.7275 44.0719 34.3078 45.4393C30.8881 46.8066 27.1473 47.1616 23.5315 46.4619C22.4499 46.2669 21.3888 45.9723 20.3615 45.5819L13.8015 52.1319C19.2741 55.1212 25.5895 56.1938 31.7422 55.179C37.895 54.1642 43.5313 51.1203 47.7541 46.5318C51.9769 41.9433 54.5433 36.0741 55.0448 29.8584C55.5463 23.6428 53.954 17.438 50.5215 12.2319Z" fill="white"/>
<path d="M4.61071 43.7086C5.36585 44.8446 5.91742 46.1034 6.24071 47.4286C6.24071 47.5486 6.48071 48.8786 6.51071 49.0186L48.6207 6.9186C48.4214 4.74175 48.7901 2.55042 49.6907 0.558604C49.7375 0.475615 49.7531 0.378646 49.7348 0.28515C49.7165 0.191655 49.6654 0.107773 49.5907 0.0486036C49.5333 0.0142411 49.4676 -0.00390625 49.4007 -0.00390625C49.3338 -0.00390625 49.2681 0.0142411 49.2107 0.0486036C49.0007 0.158604 11.3207 37.9286 11.3207 37.9286C9.48091 34.7389 8.59665 31.0875 8.77323 27.4095C8.94981 23.7314 10.1798 20.1816 12.3167 17.1828C14.4536 14.1839 17.4074 11.8625 20.8263 10.4948C24.2452 9.12716 27.9851 8.77095 31.6007 9.4686C32.6808 9.66973 33.7415 9.96417 34.7707 10.3486L41.3207 3.7986C35.8472 0.810362 29.5314 -0.260872 23.3787 0.75545C17.226 1.77177 11.5902 4.81722 7.36846 9.40695C3.14674 13.9967 0.581828 19.8668 0.0820797 26.0828C-0.417669 32.2988 1.17647 38.5034 4.61071 43.7086Z" fill="#F2A20C"/>
<path d="M63.6501 36.3194V35.3194C63.6298 35.1759 63.6433 35.0296 63.6895 34.8923C63.7357 34.7549 63.8134 34.6302 63.9164 34.5282C64.0194 34.4262 64.1448 34.3497 64.2826 34.3048C64.4204 34.2598 64.5668 34.2477 64.7101 34.2694H69.0001C69.1434 34.2477 69.2898 34.2598 69.4276 34.3048C69.5654 34.3497 69.6908 34.4262 69.7938 34.5282C69.8968 34.6302 69.9745 34.7549 70.0207 34.8923C70.0669 35.0296 70.0804 35.1759 70.0601 35.3194V35.7294C70.0049 36.1948 70.0438 36.6665 70.1743 37.1165C70.3049 37.5666 70.5245 37.9858 70.8201 38.3494C71.6283 38.9108 72.6115 39.1628 73.5901 39.0594H76.0001C76.979 39.1527 77.958 38.8822 78.7501 38.2994C79.3653 37.4958 79.6449 36.4849 79.5301 35.4794V34.8694C79.5465 34.4243 79.445 33.9828 79.2361 33.5895C79.0271 33.1962 78.7181 32.865 78.3401 32.6294C77.4347 32.0696 76.4031 31.7463 75.3401 31.6894C74.0626 31.5751 72.7935 31.3814 71.5401 31.1094C70.2423 30.8426 68.9682 30.4714 67.7301 29.9994C66.4515 29.4779 65.3919 28.5314 64.7301 27.3194C63.8827 25.7538 63.4749 23.988 63.5501 22.2094V20.4394C63.4825 19.3248 63.6447 18.2082 64.0266 17.1589C64.4085 16.1095 65.0019 15.1499 65.7701 14.3394C66.609 13.577 67.5932 12.9917 68.6637 12.6189C69.7343 12.246 70.8691 12.0931 72.0001 12.1694H77.0001C78.1257 12.1034 79.2532 12.2612 80.3174 12.6337C81.3816 13.0062 82.3614 13.5859 83.2001 14.3394C83.9683 15.1499 84.5617 16.1095 84.9436 17.1589C85.3255 18.2082 85.4877 19.3248 85.4201 20.4394V21.4394C85.44 21.5833 85.4263 21.7298 85.3801 21.8675C85.3339 22.0052 85.2564 22.1303 85.1537 22.233C85.051 22.3357 84.9259 22.4132 84.7882 22.4594C84.6505 22.5056 84.504 22.5193 84.3601 22.4994H80.0801C79.9309 22.5245 79.7778 22.5133 79.6338 22.4665C79.4899 22.4198 79.3593 22.339 79.2533 22.231C79.1473 22.123 79.0689 21.991 79.0248 21.8462C78.9807 21.7015 78.9722 21.5482 79.0001 21.3994V21.0994C79.1122 20.1453 78.8426 19.1856 78.2501 18.4294C77.4411 17.8696 76.4586 17.6178 75.4801 17.7194H73.4801C72.4805 17.6003 71.4742 17.8806 70.6801 18.4994C70.1037 19.4053 69.8631 20.4845 70.0001 21.5494V22.5494C70.0001 24.1294 71.3768 25.0361 74.1301 25.2694C76.7434 25.4543 79.3131 26.0377 81.7501 26.9994C83.0109 27.5539 84.0619 28.4963 84.7501 29.6894C85.5986 31.2148 86.0071 32.9457 85.9301 34.6894V36.3994C85.9989 37.5141 85.8373 38.6311 85.4553 39.6806C85.0734 40.7301 84.4793 41.6897 83.7101 42.4994C82.8811 43.2524 81.9101 43.8322 80.854 44.2048C79.7979 44.5775 78.6781 44.7354 77.5601 44.6694H72.0001C70.882 44.7365 69.7619 44.5791 68.7056 44.2064C67.6494 43.8337 66.6785 43.2533 65.8501 42.4994C65.0742 41.6786 64.4779 40.7052 64.0991 39.6412C63.7203 38.5771 63.5674 37.4458 63.6501 36.3194ZM105.09 44.5894H99.4401C98.3258 44.6593 97.2087 44.508 96.1532 44.1442C95.0977 43.7803 94.1246 43.2111 93.2901 42.4694C92.5314 41.6545 91.9474 40.6929 91.5742 39.6438C91.201 38.5948 91.0465 37.4804 91.1201 36.3694V20.3694C91.0471 19.2584 91.2019 18.1443 91.5751 17.0953C91.9482 16.0463 92.5318 15.0847 93.2901 14.2694C94.1246 13.5277 95.0977 12.9585 96.1532 12.5947C97.2087 12.2308 98.3258 12.0795 99.4401 12.1494H105.09C106.204 12.0795 107.321 12.2308 108.377 12.5947C109.433 12.9585 110.406 13.5277 111.24 14.2694C111.998 15.0847 112.582 16.0463 112.955 17.0953C113.328 18.1443 113.483 19.2584 113.41 20.3694V36.3694C113.484 37.4804 113.329 38.5948 112.956 39.6438C112.583 40.6929 111.999 41.6545 111.24 42.4694C110.406 43.2111 109.433 43.7803 108.377 44.1442C107.321 44.508 106.204 44.6593 105.09 44.5894ZM100.45 39.0494H104C104.408 39.0907 104.821 39.051 105.214 38.9326C105.607 38.8142 105.973 38.6194 106.29 38.3594C106.548 38.0411 106.741 37.675 106.858 37.2821C106.975 36.8891 107.013 36.4771 106.97 36.0694V20.6894C107.054 19.8663 106.81 19.0434 106.29 18.3994C105.645 17.8818 104.823 17.6377 104 17.7194H100.42C100.016 17.6778 99.6069 17.7165 99.2173 17.8332C98.8278 17.9499 98.4651 18.1423 98.1501 18.3994C97.6498 19.0522 97.4173 19.8712 97.5001 20.6894V36.0694C97.4163 36.8878 97.6489 37.7071 98.1501 38.3594C98.4668 38.6241 98.834 38.8217 99.2293 38.9403C99.6247 39.0589 100.04 39.096 100.45 39.0494ZM137.1 44.5894H120.51C120.367 44.6098 120.22 44.5963 120.083 44.55C119.946 44.5038 119.821 44.4261 119.719 44.3231C119.617 44.2201 119.54 44.0947 119.495 43.9569C119.451 43.8191 119.438 43.6727 119.46 43.5294V13.2294C119.441 13.0865 119.454 12.941 119.5 12.8042C119.546 12.6673 119.622 12.5429 119.724 12.4404C119.825 12.3379 119.949 12.2601 120.085 12.2132C120.222 12.1662 120.367 12.1512 120.51 12.1694H124.8C124.944 12.1495 125.09 12.1632 125.228 12.2094C125.366 12.2557 125.491 12.3332 125.594 12.4359C125.696 12.5386 125.774 12.6637 125.82 12.8013C125.866 12.939 125.88 13.0856 125.86 13.2294V38.4394C125.86 38.8094 126.06 38.9994 126.46 38.9994H137.1C137.77 38.9994 138.1 39.3694 138.1 40.0994V43.5294C138.11 44.2394 137.77 44.5894 137.1 44.5894Z" fill="white"/>
</svg>
