<svg width="56" height="56" viewBox="0 0 56 56" fill="none" xmlns="http://www.w3.org/2000/svg">
<path d="M50.5215 12.2319C49.7609 11.094 49.2058 9.83156 48.8815 8.50187C48.8815 8.38187 48.6415 7.06188 48.6115 6.92188L6.51148 49.0019C6.71085 51.1755 6.34214 53.3636 5.44148 55.3519C5.39357 55.4338 5.37632 55.53 5.39281 55.6234C5.40929 55.7168 5.45844 55.8013 5.53148 55.8619C5.59077 55.8961 5.65802 55.9141 5.72648 55.9141C5.79494 55.9141 5.86219 55.8961 5.92148 55.8619C6.11148 55.7719 43.8015 18.0019 43.8015 18.0019C45.6448 21.1903 46.5322 24.8416 46.3579 28.5204C46.1836 32.1992 44.9549 35.7502 42.8183 38.7501C40.6817 41.7499 37.7275 44.0719 34.3078 45.4393C30.8881 46.8066 27.1473 47.1616 23.5315 46.4619C22.4499 46.2669 21.3888 45.9723 20.3615 45.5819L13.8015 52.1319C19.2741 55.1212 25.5895 56.1938 31.7422 55.179C37.895 54.1642 43.5313 51.1203 47.7541 46.5318C51.9769 41.9433 54.5433 36.0741 55.0448 29.8584C55.5463 23.6428 53.954 17.438 50.5215 12.2319Z" fill="white"/>
<path d="M4.61071 43.7086C5.36585 44.8446 5.91742 46.1034 6.24071 47.4286C6.24071 47.5486 6.48071 48.8786 6.51071 49.0186L48.6207 6.9186C48.4214 4.74175 48.7901 2.55042 49.6907 0.558604C49.7375 0.475615 49.7532 0.378646 49.7348 0.28515C49.7165 0.191655 49.6654 0.107773 49.5907 0.0486036C49.5333 0.0142411 49.4676 -0.00390625 49.4007 -0.00390625C49.3338 -0.00390625 49.2681 0.0142411 49.2107 0.0486036C49.0007 0.158604 11.3207 37.9286 11.3207 37.9286C9.48091 34.7389 8.59665 31.0875 8.77323 27.4095C8.94981 23.7314 10.1798 20.1816 12.3167 17.1828C14.4536 14.1839 17.4074 11.8625 20.8263 10.4948C24.2452 9.12716 27.9851 8.77095 31.6007 9.4686C32.6808 9.66973 33.7415 9.96417 34.7707 10.3486L41.3207 3.7986C35.8472 0.810362 29.5314 -0.260872 23.3787 0.75545C17.226 1.77177 11.5902 4.81722 7.36846 9.40695C3.14674 13.9967 0.581828 19.8668 0.0820797 26.0828C-0.417669 32.2988 1.17647 38.5034 4.61071 43.7086Z" fill="#F2A20C"/>
</svg>
