<svg width="94" height="94" viewBox="0 0 94 94" fill="none" xmlns="http://www.w3.org/2000/svg">
<path fill-rule="evenodd" clip-rule="evenodd" d="M47.5 19C35.0984 19 27.3516 25.2207 24.25 37.6667C28.9 31.446 34.3266 29.1127 40.525 30.6667C44.0637 31.554 46.5933 34.1315 49.3879 36.9812C53.9496 41.6244 59.2273 47 70.75 47C83.1516 47 90.8984 40.7793 94 28.3333C89.35 34.554 83.9281 36.8873 77.725 35.3333C74.1863 34.446 71.6568 31.8685 68.8575 29.0188C64.3005 24.3709 59.0274 19 47.5 19ZM24.25 47C11.8484 47 4.10155 53.2207 1 65.6667C5.65 59.4413 11.0765 57.1127 17.275 58.6667C20.8136 59.554 23.3433 62.1315 26.1426 64.9812C30.6996 69.6244 35.9773 75 47.5047 75C59.9062 75 67.6531 68.7793 70.7546 56.3333C66.1046 62.554 60.6781 64.8873 54.4797 63.3333C50.941 62.446 48.4114 59.8685 45.6168 57.0188C41.0505 52.3756 35.7727 47 24.25 47Z" fill="#6F2C8F"/>
</svg>
