<svg width="84" height="84" viewBox="0 0 84 84" fill="none" xmlns="http://www.w3.org/2000/svg">
<path d="M0 9.1875C0 4.11338 4.11339 0 9.1875 0H74.8125C79.8866 0 84 4.11339 84 9.1875V19.6875C84 21.8621 82.2371 23.625 80.0625 23.625C77.8879 23.625 76.125 21.8621 76.125 19.6875V9.1875C76.125 8.46263 75.5375 7.875 74.8125 7.875H9.1875C8.46263 7.875 7.875 8.46263 7.875 9.1875V74.8125C7.875 75.5375 8.46263 76.125 9.1875 76.125H80.0625C82.2371 76.125 84 77.8879 84 80.0625C84 82.2371 82.2371 84 80.0625 84H9.1875C4.11338 84 0 79.8866 0 74.8125V9.1875ZM24.9375 34.125C24.9375 31.9504 26.7004 30.1875 28.875 30.1875H48.5625C50.7371 30.1875 52.5 31.9504 52.5 34.125C52.5 36.2996 50.7371 38.0625 48.5625 38.0625H43.3125V65.625C43.3125 67.7996 41.5496 69.5625 39.375 69.5625C37.2004 69.5625 35.4375 67.7996 35.4375 65.625V38.0625H28.875C26.7004 38.0625 24.9375 36.2996 24.9375 34.125ZM59.1974 34.5456C61.3956 31.9286 64.8412 30.1875 69.5625 30.1875C73.9457 30.1875 77.2527 31.6873 79.4818 34.0453C80.9755 35.6256 80.9051 38.1177 79.3249 39.6115C77.7446 41.1053 75.2525 41.0351 73.7588 39.4547C73.1819 38.8446 72.0321 38.0625 69.5625 38.0625C66.9338 38.0625 65.7857 38.9464 65.2276 39.6107C64.5404 40.4284 64.3125 41.454 64.3125 42C64.3125 42.546 64.5404 43.5716 65.2276 44.3893C65.7857 45.0536 66.9338 45.9375 69.5625 45.9375C69.9599 45.9375 70.3437 45.9964 70.7049 46.1059C74.1862 46.6014 76.8175 48.1557 78.6151 50.2956C80.6841 52.7588 81.375 55.671 81.375 57.75C81.375 59.829 80.6841 62.7412 78.6151 65.2045C76.4169 67.8216 72.9713 69.5625 68.25 69.5625C63.8668 69.5625 60.5598 68.0626 58.3307 65.7048C56.837 64.1245 56.9074 61.6324 58.4876 60.1382C60.0679 58.6446 62.56 58.715 64.0537 60.2952C64.6306 60.9053 65.7804 61.6875 68.25 61.6875C70.8787 61.6875 72.0268 60.8034 72.5849 60.1393C73.2721 59.3213 73.5 58.296 73.5 57.75C73.5 57.204 73.2721 56.1787 72.5849 55.3607C72.0268 54.6966 70.8787 53.8125 68.25 53.8125C67.8526 53.8125 67.4688 53.7537 67.1076 53.644C63.6263 53.1484 60.995 51.5943 59.1974 49.4544C57.1284 46.9909 56.4375 44.079 56.4375 42C56.4375 39.921 57.1284 37.0091 59.1974 34.5456Z" fill="white"/>
</svg>
