<svg width="45" height="26" viewBox="0 0 45 26" fill="none" xmlns="http://www.w3.org/2000/svg">
<path d="M8.06303 25.3086V0.540593H12.995V25.3086H8.06303ZM-0.000968687 4.35659V0.000593424H21.059V4.35659H-0.000968687ZM28.0397 14.7246V10.9086H33.9077C35.1077 10.9086 36.0317 10.6086 36.6797 10.0086C37.3517 9.38459 37.6877 8.53259 37.6877 7.45259C37.6877 6.46859 37.3517 5.65259 36.6797 5.00459C36.0317 4.33259 35.1077 3.99659 33.9077 3.99659H28.0397V0.000593424H34.3397C35.9717 0.000593424 37.3997 0.324593 38.6237 0.972592C39.8717 1.59659 40.8317 2.46059 41.5037 3.56459C42.1997 4.66859 42.5477 5.94059 42.5477 7.38059C42.5477 8.86859 42.1997 10.1646 41.5037 11.2686C40.8317 12.3486 39.8717 13.2006 38.6237 13.8246C37.3757 14.4246 35.9237 14.7246 34.2677 14.7246H28.0397ZM24.4397 25.3086V0.000593424H29.3357V25.3086H24.4397ZM38.2637 25.3086L29.9117 14.3646L34.4117 12.9606L44.2037 25.3086H38.2637Z" fill="#7C3AED"/>
</svg>
