<svg width="153" height="168" viewBox="0 0 153 168" fill="none" xmlns="http://www.w3.org/2000/svg">
<path opacity="0.1" d="M0 63.9995V10.6662C8.76133 8.52312 17.5227 6.38006 25.3406 7.2884C33.1586 8.19674 40.0332 12.1565 49.4062 12.1477C58.7793 12.1388 70.6509 8.16149 79.4484 8.11803C88.2459 8.07457 93.9693 11.965 102.08 12.0884C110.19 12.2118 120.687 8.5681 129.572 7.70322C138.456 6.83834 145.728 8.75226 153 10.6662V63.9995H0Z" fill="#6F2C8F"/>
<path opacity="0.2" d="M0 63.999V21.3324C7.37334 21.0577 14.7467 20.7829 21.9937 20.2657C29.2408 19.7485 36.3616 18.9887 47.0156 19.7324C57.6696 20.476 71.8569 22.723 80.6437 22.5176C89.4306 22.3121 92.8171 19.6543 100.087 19.6731C107.358 19.692 118.512 22.3875 127.978 23.1101C137.444 23.8328 145.222 22.5826 153 21.3324V63.999H0Z" fill="#6F2C8F"/>
<path opacity="0.3" d="M0 64V32C8.01779 32.397 16.0356 32.7941 25.5 32.5333C34.9644 32.2726 45.8755 31.3541 55.2234 30.8741C64.5714 30.3941 72.3562 30.3526 80.5641 30.2815C88.7719 30.2104 97.4026 30.1096 104.311 31.0518C111.219 31.9941 116.405 33.9793 124.233 34.3111C132.061 34.643 142.53 33.3215 153 32V64H0Z" fill="#6F2C8F"/>
<path opacity="0.4" d="M0 63.9992V42.6658C9.33549 41.2448 18.671 39.8238 28.5281 40.414C38.3853 41.0041 48.764 43.6055 55.6219 43.0807C62.4797 42.5558 65.8166 38.9048 72.9937 38.9918C80.1709 39.0787 91.1884 42.9035 100.167 43.2584C109.146 43.6134 116.086 40.4985 124.552 39.8214C133.017 39.1443 143.009 40.9051 153 42.6658V63.9992H0Z" fill="#6F2C8F"/>
<path opacity="0.5" d="M0 63.9996V53.3329C7.9193 52.0641 15.8386 50.7954 25.1016 50.0736C34.3645 49.3519 44.9711 49.1772 54.1078 49.8366C63.2445 50.4961 70.9112 51.9897 78.6516 52.2662C86.3919 52.5428 94.2057 51.6022 102.717 52.3255C111.229 53.0488 120.438 55.4358 128.934 55.881C137.431 56.3263 145.216 54.8296 153 53.3329V63.9996H0Z" fill="#6F2C8F"/>
<path d="M0 64H153V110C153 112.761 150.761 115 148 115H4C1.79086 115 0 113.209 0 111V64Z" fill="#6F2C8F"/>
<path d="M0 64H153V163C153 165.761 150.761 168 148 168H4C1.79086 168 0 166.209 0 164V64Z" fill="#6F2C8F"/>
</svg>
