<svg width="199" height="363" viewBox="0 0 199 363" fill="none" xmlns="http://www.w3.org/2000/svg">
<path fill-rule="evenodd" clip-rule="evenodd" d="M0 7.99999C0 3.58171 3.58172 0 8 0H191C195.418 0 199 3.58172 199 8V354.535C199 358.953 195.418 362.535 191 362.535H169.299L89.0405 282.251L28.7176 221.664V362.535H8C3.58172 362.535 0 358.953 0 354.535V7.99999ZM28.7142 37.559C28.7142 33.1408 32.2959 29.559 36.7142 29.559H161.301C165.72 29.559 169.301 33.1407 169.301 37.559V72.7867C169.301 77.205 165.72 80.7867 161.301 80.7867H36.7142C32.2959 80.7867 28.7142 77.205 28.7142 72.7867V37.559ZM36.5673 110.337C32.149 110.337 28.5673 113.919 28.5673 118.337V153.565C28.5673 157.983 32.149 161.565 36.5673 161.565H84.7181V161.565H114.273V141.862H84.7207V118.337C84.7207 113.919 81.139 110.337 76.7207 110.337H36.5673ZM114.274 118.337C114.274 113.919 117.856 110.337 122.274 110.337H161.442C165.861 110.337 169.442 113.919 169.442 118.337V153.565C169.442 157.983 165.861 161.565 161.442 161.565H114.274V118.337ZM162.003 192.001H48.0028L109.503 254.501L170.003 316.001V200.001C170.003 195.583 166.421 192.001 162.003 192.001Z" fill="#D46868"/>
</svg>
