<svg width="55" height="99" viewBox="0 0 55 99" fill="none" xmlns="http://www.w3.org/2000/svg">
<g clip-path="url(#clip0_931_708)">
<path fill-rule="evenodd" clip-rule="evenodd" d="M0 3C0 1.34314 1.34315 0 3 0H51.087C52.7438 0 54.087 1.34315 54.087 3V95.5347C54.087 97.1915 52.7438 98.5347 51.087 98.5347H46.0128L24.199 76.714L7.80364 60.2469V98.5347H3C1.34315 98.5347 0 97.1915 0 95.5347V3ZM7.80341 11.0343C7.80341 9.37741 9.14656 8.03427 10.8034 8.03427H43.0141C44.671 8.03427 46.0141 9.37741 46.0141 11.0343V18.9576C46.0141 20.6145 44.671 21.9576 43.0141 21.9576H10.8034C9.14656 21.9576 7.80341 20.6145 7.80341 18.9576V11.0343ZM10.7611 29.9895C9.10426 29.9895 7.76112 31.3326 7.76112 32.9895V40.9128C7.76112 42.5697 9.10426 43.9128 10.7611 43.9128H23.0233L31.0556 43.9123V38.5572H23.0233V32.9895C23.0233 31.3326 21.6801 29.9895 20.0233 29.9895H10.7611ZM31.0562 32.9895C31.0562 31.3326 32.3994 29.9895 34.0562 29.9895H43.0506C44.7075 29.9895 46.0506 31.3326 46.0506 32.9895V40.9128C46.0506 42.5697 44.7075 43.9128 43.0506 43.9128L31.0556 43.9123L31.0562 32.9895ZM43.0989 51.9995H12.999L29.699 68.9995L46.099 85.6995V54.9995C46.099 53.3426 44.7558 51.9995 43.0989 51.9995Z" fill="#6F2C8F"/>
</g>
<defs>
<clipPath id="clip0_931_708">
<rect width="55" height="99" fill="white"/>
</clipPath>
</defs>
</svg>
